<?xml version="1.0" encoding="UTF-8" standalone="no"?>
<!DOCTYPE svg PUBLIC "-//W3C//DTD SVG 1.1//EN"
 "http://www.w3.org/Graphics/SVG/1.1/DTD/svg11.dtd">
<!-- Generated by graphviz version 2.40.1 (20161225.0304)
 -->
<!-- Title: %0 Pages: 1 -->
<svg width="222pt" height="170pt"
 viewBox="0.00 0.00 222.00 170.00" xmlns="http://www.w3.org/2000/svg" xmlns:xlink="http://www.w3.org/1999/xlink">
<g id="graph0" class="graph" transform="scale(1 1) rotate(0) translate(4 166)">
<title>%0</title>
<polygon fill="#ffffff" stroke="transparent" points="-4,4 -4,-166 218,-166 218,4 -4,4"/>
<!-- htmlTable -->
<g id="node1" class="node">
<title>htmlTable</title>
<polygon fill="none" stroke="#000000" points="8,-136 8,-158 46,-158 46,-136 8,-136"/>
<text text-anchor="start" x="10.8671" y="-142.4" font-family="Times,serif" font-size="14.00" fill="#000000">기호</text>
<polygon fill="none" stroke="#000000" points="46,-136 46,-158 206,-158 206,-136 46,-136"/>
<text text-anchor="start" x="112.3591" y="-142.4" font-family="Times,serif" font-size="14.00" fill="#000000">의미</text>
<polygon fill="none" stroke="#000000" points="8,-114 8,-136 46,-136 46,-114 8,-114"/>
<text text-anchor="start" x="23.0527" y="-120.4" font-family="Times,serif" font-size="14.00" fill="#000000">=</text>
<polygon fill="none" stroke="#000000" points="46,-114 46,-136 206,-136 206,-114 46,-114"/>
<text text-anchor="start" x="49" y="-120.4" font-family="Times,serif" font-size="14.00" fill="#000000">정의(is composed of)</text>
<polygon fill="none" stroke="#000000" points="8,-92 8,-114 46,-114 46,-92 8,-92"/>
<text text-anchor="start" x="23.0527" y="-98.4" font-family="Times,serif" font-size="14.00" fill="#000000">+</text>
<polygon fill="none" stroke="#000000" points="46,-92 46,-114 206,-114 206,-92 46,-92"/>
<text text-anchor="start" x="49" y="-98.4" font-family="Times,serif" font-size="14.00" fill="#000000">연결(and)</text>
<polygon fill="none" stroke="#000000" points="8,-70 8,-92 46,-92 46,-70 8,-70"/>
<text text-anchor="start" x="20.2814" y="-76.4" font-family="Times,serif" font-size="14.00" fill="#000000">{}</text>
<polygon fill="none" stroke="#000000" points="46,-70 46,-92 206,-92 206,-70 46,-70"/>
<text text-anchor="start" x="49" y="-76.4" font-family="Times,serif" font-size="14.00" fill="#000000">반복(iteration of)</text>
<polygon fill="none" stroke="#000000" points="8,-48 8,-70 46,-70 46,-48 8,-48"/>
<text text-anchor="start" x="22.3394" y="-54.4" font-family="Times,serif" font-size="14.00" fill="#000000">[]</text>
<polygon fill="none" stroke="#000000" points="46,-48 46,-70 206,-70 206,-48 46,-48"/>
<text text-anchor="start" x="49" y="-54.4" font-family="Times,serif" font-size="14.00" fill="#000000">선택(choose only one of)</text>
<polygon fill="none" stroke="#000000" points="8,-26 8,-48 46,-48 46,-26 8,-26"/>
<text text-anchor="start" x="22.3394" y="-32.4" font-family="Times,serif" font-size="14.00" fill="#000000">()</text>
<polygon fill="none" stroke="#000000" points="46,-26 46,-48 206,-48 206,-26 46,-26"/>
<text text-anchor="start" x="49" y="-32.4" font-family="Times,serif" font-size="14.00" fill="#000000">생략(optional)</text>
<polygon fill="none" stroke="#000000" points="8,-4 8,-26 46,-26 46,-4 8,-4"/>
<text text-anchor="start" x="20" y="-10.4" font-family="Times,serif" font-size="14.00" fill="#000000">**</text>
<polygon fill="none" stroke="#000000" points="46,-4 46,-26 206,-26 206,-4 46,-4"/>
<text text-anchor="start" x="49" y="-10.4" font-family="Times,serif" font-size="14.00" fill="#000000">주석(comment)</text>
</g>
</g>
</svg>
