<?xml version="1.0" encoding="UTF-8" standalone="no"?>
<!DOCTYPE svg PUBLIC "-//W3C//DTD SVG 1.1//EN"
 "http://www.w3.org/Graphics/SVG/1.1/DTD/svg11.dtd">
<!-- Generated by graphviz version 2.40.1 (20161225.0304)
 -->
<!-- Title: G Pages: 1 -->
<svg width="435pt" height="151pt"
 viewBox="0.00 0.00 434.53 151.00" xmlns="http://www.w3.org/2000/svg" xmlns:xlink="http://www.w3.org/1999/xlink">
<g id="graph0" class="graph" transform="scale(1 1) rotate(0) translate(4 147)">
<title>G</title>
<polygon fill="#ffffff" stroke="transparent" points="-4,4 -4,-147 430.5348,-147 430.5348,4 -4,4"/>
<!-- 대출자 -->
<g id="node1" class="node">
<title>대출자</title>
<ellipse fill="none" stroke="#000000" cx="36" cy="-36" rx="36" ry="36"/>
<text text-anchor="middle" x="36" y="-31.8" font-family="Times,serif" font-size="14.00" fill="#000000">대출자</text>
</g>
<!-- 플랫폼 -->
<g id="node2" class="node">
<title>플랫폼</title>
<ellipse fill="none" stroke="#000000" cx="210.3211" cy="-107" rx="36" ry="36"/>
<text text-anchor="middle" x="210.3211" y="-102.8" font-family="Times,serif" font-size="14.00" fill="#000000">플랫폼</text>
</g>
<!-- 대출자&#45;&gt;플랫폼 -->
<g id="edge1" class="edge">
<title>대출자&#45;&gt;플랫폼</title>
<path fill="none" stroke="#000000" d="M69.6109,-49.6895C97.4647,-61.0342 137.2309,-77.2308 167.3873,-89.5133"/>
<polygon fill="#000000" stroke="#000000" points="166.2319,-92.8218 176.8134,-93.3525 168.8724,-86.3389 166.2319,-92.8218"/>
<text text-anchor="middle" x="122.6606" y="-88.2" font-family="Times,serif" font-size="14.00" fill="#000000">1. 투자 신청</text>
</g>
<!-- 투자자 -->
<g id="node3" class="node">
<title>투자자</title>
<ellipse fill="none" stroke="#000000" cx="390.5348" cy="-36" rx="36" ry="36"/>
<text text-anchor="middle" x="390.5348" y="-31.8" font-family="Times,serif" font-size="14.00" fill="#000000">투자자</text>
</g>
<!-- 대출자&#45;&gt;투자자 -->
<g id="edge3" class="edge">
<title>대출자&#45;&gt;투자자</title>
<path fill="none" stroke="#000000" d="M72.2753,-36C137.1202,-36 272.7992,-36 344.2508,-36"/>
<polygon fill="#000000" stroke="#000000" points="344.3108,-39.5001 354.3107,-36 344.3107,-32.5001 344.3108,-39.5001"/>
<text text-anchor="middle" x="210.3211" y="-40.2" font-family="Times,serif" font-size="14.00" fill="#000000">3. 대출</text>
</g>
<!-- 플랫폼&#45;&gt;투자자 -->
<g id="edge2" class="edge">
<title>플랫폼&#45;&gt;투자자</title>
<path fill="none" stroke="#000000" d="M244.2179,-93.6454C273.4167,-82.1418 315.7268,-65.4726 347.3465,-53.0152"/>
<polygon fill="#000000" stroke="#000000" points="348.769,-56.2167 356.79,-49.2947 346.203,-49.7039 348.769,-56.2167"/>
<text text-anchor="middle" x="300.9279" y="-88.2" font-family="Times,serif" font-size="14.00" fill="#000000">2. 투자 모집</text>
</g>
<!-- 투자자&#45;&gt;대출자 -->
<g id="edge4" class="edge">
<title>투자자&#45;&gt;대출자</title>
<path fill="none" stroke="#000000" d="M355.0832,-29.3971C326.1954,-24.3684 284.2831,-17.8701 247.321,-15.2 214.5177,-12.8303 206.1171,-12.7303 173.3212,-15.2 142.5426,-17.5178 108.21,-22.7183 81.5732,-27.3391"/>
<polygon fill="#000000" stroke="#000000" points="80.6354,-23.9506 71.3987,-29.1405 81.8558,-30.8434 80.6354,-23.9506"/>
<text text-anchor="middle" x="210.3211" y="-19.2" font-family="Times,serif" font-size="14.00" fill="#000000">4. 원금+이자</text>
</g>
</g>
</svg>
